<svg width="1304" height="665" viewBox="0 0 1304 665" fill="none" xmlns="http://www.w3.org/2000/svg">
<path d="M949.164 590.749C831.484 561.659 753.317 485.367 692.78 387.162C685.393 375.181 683.29 361.669 697.04 353.041C711.405 344.026 722.85 351.079 730.99 364.327C766.196 421.658 810.034 470.493 865.991 508.906C1022.54 616.385 1228.33 515.772 1257.25 334.95C1277.97 205.446 1184.65 73.1387 1055.78 48.6048C952.316 28.9068 871.927 70.3509 803.956 143.674C746.765 205.364 699.498 274.89 649.458 342.209C600.112 408.602 548.03 472.173 484.553 526.342C317.112 669.227 55.8706 580.55 8.61719 367.231C-33.2066 178.423 87.0362 32.0462 251.752 4.37396C334.383 -9.50819 408.405 16.2402 474.727 66.4707C531.524 109.487 577.166 162.537 617.652 220.516C626.396 233.035 629.471 246.027 615.502 256.281C600.769 267.096 590.239 257.904 581.641 245.952C539.599 187.512 492.099 134.977 433.518 91.7566C299.664 -6.99945 132.465 59.9739 69.6736 186.505C-6.44368 339.887 91.1516 524.362 260.567 550.028C341.684 562.317 407.009 533.946 466.512 483.377C530.582 428.927 579.762 361.771 629.127 294.638C681.104 223.961 731.268 151.718 794.448 90.1133C839.434 46.2463 892.43 14.0141 954.549 5.23129C1110.82 -16.8623 1241.13 63.7024 1287.46 205.441C1332.56 343.44 1280.79 478.613 1155.93 554.809C1092.95 593.24 1023.38 602.683 949.164 590.749Z" fill="#030164"/>
<path d="M789.72 284.2C789.72 280.12 789.16 277.12 788.04 275.2C786.92 273.2 784.68 272.2 781.32 272.2H778.92V269.8H789.72C792.68 269.8 794.88 270.2 796.32 271C797.84 271.72 798.92 273.08 799.56 275.08C800.2 277.08 800.52 280.12 800.52 284.2V344.2H843.12V349H789.72V284.2ZM872.114 285.4C870.274 285.4 868.674 284.64 867.314 283.12C866.034 281.6 865.394 279.8 865.394 277.72C865.394 276.04 865.874 274.72 866.834 273.76C867.874 272.8 869.234 272.32 870.914 272.32C872.754 272.32 874.314 273.08 875.594 274.6C876.954 276.12 877.634 277.92 877.634 280C877.634 281.68 877.114 283 876.074 283.96C875.114 284.92 873.794 285.4 872.114 285.4ZM867.554 307C867.554 302.92 866.994 299.92 865.874 298C864.754 296 862.514 295 859.154 295H856.754V292.6H867.554C870.514 292.6 872.714 293 874.154 293.8C875.674 294.52 876.754 295.88 877.394 297.88C878.034 299.88 878.354 302.92 878.354 307V349H867.554V307ZM902.365 297.4V292.6H910.765V289C910.765 275.4 917.765 268.6 931.765 268.6C936.805 268.6 940.205 269.2 941.965 270.4C943.325 271.44 944.725 273.24 946.165 275.8L942.565 278.8C940.165 275.2 936.365 273.4 931.165 273.4C924.765 273.4 921.565 278.6 921.565 289V292.6H938.365V297.4H921.565V349H910.765V297.4H902.365ZM982.669 350.2C977.229 350.2 972.629 348.92 968.869 346.36C965.109 343.72 962.269 340.2 960.349 335.8C958.429 331.32 957.469 326.32 957.469 320.8C957.469 315.36 958.429 310.4 960.349 305.92C962.269 301.44 965.029 297.92 968.629 295.36C972.309 292.72 976.589 291.4 981.469 291.4C989.549 291.4 995.549 293.68 999.469 298.24C1003.47 302.72 1005.47 309.24 1005.47 317.8L1005.23 322.6H968.869C968.869 329.32 970.309 334.8 973.189 339.04C976.069 343.28 980.029 345.4 985.069 345.4C988.829 345.4 991.989 344.6 994.549 343C997.189 341.4 999.629 339 1001.87 335.8L1004.27 337.6C1001.63 342 998.549 345.2 995.029 347.2C991.509 349.2 987.389 350.2 982.669 350.2ZM994.069 317.8C994.069 310.76 993.029 305.4 990.949 301.72C988.869 298.04 985.709 296.2 981.469 296.2C979.069 296.2 976.909 297.16 974.989 299.08C973.069 300.92 971.549 303.48 970.429 306.76C969.389 310.04 968.869 313.72 968.869 317.8H994.069ZM1049.18 350.2C1044.7 350.2 1041.18 348.92 1038.62 346.36C1036.06 343.8 1034.78 339.88 1034.78 334.6V297.4H1026.38V292.6H1034.78V281.8L1040.78 274.6H1045.58V292.6H1059.98V297.4H1045.58V334.6C1045.58 341.8 1048.38 345.4 1053.98 345.4C1055.9 345.4 1057.5 345.2 1058.78 344.8C1060.14 344.4 1061.54 343.8 1062.98 343L1064.18 345.4C1062.34 346.76 1060.3 347.92 1058.06 348.88C1055.82 349.76 1052.86 350.2 1049.18 350.2ZM1108.21 350.2C1102.77 350.2 1098.17 348.92 1094.41 346.36C1090.65 343.72 1087.81 340.2 1085.89 335.8C1083.97 331.32 1083.01 326.32 1083.01 320.8C1083.01 315.36 1083.97 310.4 1085.89 305.92C1087.81 301.44 1090.57 297.92 1094.17 295.36C1097.85 292.72 1102.13 291.4 1107.01 291.4C1115.09 291.4 1121.09 293.68 1125.01 298.24C1129.01 302.72 1131.01 309.24 1131.01 317.8L1130.77 322.6H1094.41C1094.41 329.32 1095.85 334.8 1098.73 339.04C1101.61 343.28 1105.57 345.4 1110.61 345.4C1114.37 345.4 1117.53 344.6 1120.09 343C1122.73 341.4 1125.17 339 1127.41 335.8L1129.81 337.6C1127.17 342 1124.09 345.2 1120.57 347.2C1117.05 349.2 1112.93 350.2 1108.21 350.2ZM1119.61 317.8C1119.61 310.76 1118.57 305.4 1116.49 301.72C1114.41 298.04 1111.25 296.2 1107.01 296.2C1104.61 296.2 1102.45 297.16 1100.53 299.08C1098.61 300.92 1097.09 303.48 1095.97 306.76C1094.93 310.04 1094.41 313.72 1094.41 317.8H1119.61ZM1200.64 350.2C1193.84 350.2 1188.04 347 1183.24 340.6L1168.84 321.4V349H1158.04V284.2C1158.04 280.12 1157.48 277.12 1156.36 275.2C1155.24 273.2 1153 272.2 1149.64 272.2H1147.24V269.8H1158.04C1161 269.8 1163.2 270.2 1164.64 271C1166.16 271.72 1167.24 273.08 1167.88 275.08C1168.52 277.08 1168.84 280.12 1168.84 284.2V319.6L1183.84 300.4C1185.92 297.84 1188.12 295.92 1190.44 294.64C1192.76 293.28 1195.76 292.6 1199.44 292.6H1203.04V295.6C1200.88 295.6 1198.8 296.04 1196.8 296.92C1194.8 297.8 1193.08 299.16 1191.64 301L1178.44 317.8L1193.44 337C1195.76 340.04 1197.92 342.32 1199.92 343.84C1202 345.36 1204.24 346.32 1206.64 346.72V349C1204.88 349.8 1202.88 350.2 1200.64 350.2Z" fill="#030164"/>
<path d="M236.92 352.4C231.16 352.4 226.68 351.52 223.48 349.76C220.28 348 218 345.28 216.64 341.6C215.36 337.84 214.72 332.84 214.72 326.6V280.4L184.72 347H182.32L151.12 279.2V347H146.32V267.8H157.72L186.52 330.2L214.72 267.8H225.52V326.6C225.52 334.04 226.44 339.8 228.28 343.88C230.2 347.96 233.08 350 236.92 350V352.4ZM277.656 283.4C275.816 283.4 274.216 282.64 272.856 281.12C271.576 279.6 270.936 277.8 270.936 275.72C270.936 274.04 271.416 272.72 272.376 271.76C273.416 270.8 274.776 270.32 276.456 270.32C278.296 270.32 279.856 271.08 281.136 272.6C282.496 274.12 283.176 275.92 283.176 278C283.176 279.68 282.656 281 281.616 281.96C280.656 282.92 279.336 283.4 277.656 283.4ZM273.096 305C273.096 300.92 272.536 297.92 271.416 296C270.296 294 268.056 293 264.696 293H262.296V290.6H273.096C276.056 290.6 278.256 291 279.696 291.8C281.216 292.52 282.296 293.88 282.936 295.88C283.576 297.88 283.896 300.92 283.896 305V347H273.096V305ZM341.508 348.2C337.028 348.2 333.508 346.92 330.948 344.36C328.388 341.8 327.108 337.88 327.108 332.6V295.4H318.708V290.6H327.108V279.8L333.108 272.6H337.908V290.6H352.308V295.4H337.908V332.6C337.908 339.8 340.708 343.4 346.308 343.4C348.228 343.4 349.828 343.2 351.108 342.8C352.468 342.4 353.868 341.8 355.308 341L356.508 343.4C354.668 344.76 352.628 345.92 350.388 346.88C348.148 347.76 345.188 348.2 341.508 348.2ZM406.054 348.2C401.574 348.2 398.054 346.92 395.494 344.36C392.934 341.8 391.654 337.88 391.654 332.6V295.4H383.254V290.6H391.654V279.8L397.654 272.6H402.454V290.6H416.854V295.4H402.454V332.6C402.454 339.8 405.254 343.4 410.854 343.4C412.774 343.4 414.374 343.2 415.654 342.8C417.014 342.4 418.414 341.8 419.854 341L421.054 343.4C419.214 344.76 417.174 345.92 414.934 346.88C412.694 347.76 409.734 348.2 406.054 348.2ZM460.281 283.4C458.441 283.4 456.841 282.64 455.481 281.12C454.201 279.6 453.561 277.8 453.561 275.72C453.561 274.04 454.041 272.72 455.001 271.76C456.041 270.8 457.401 270.32 459.081 270.32C460.921 270.32 462.481 271.08 463.761 272.6C465.121 274.12 465.801 275.92 465.801 278C465.801 279.68 465.281 281 464.241 281.96C463.281 282.92 461.961 283.4 460.281 283.4ZM455.721 305C455.721 300.92 455.161 297.92 454.041 296C452.921 294 450.681 293 447.321 293H444.921V290.6H455.721C458.681 290.6 460.881 291 462.321 291.8C463.841 292.52 464.921 293.88 465.561 295.88C466.201 297.88 466.521 300.92 466.521 305V347H455.721V305Z" fill="#030164"/>
<path d="M445.76 601C448.88 601 451.79 601.9 454.49 603.7C457.25 605.5 459.47 607.93 461.15 610.99C462.83 614.05 463.67 617.47 463.67 621.25C463.67 624.97 462.83 628.36 461.15 631.42C459.47 634.48 457.25 636.94 454.49 638.8C451.79 640.6 448.88 641.5 445.76 641.5H429.2L430.1 639.88V658.51C430.1 660.07 429.62 661.39 428.66 662.47C427.7 663.49 426.44 664 424.88 664C423.38 664 422.15 663.49 421.19 662.47C420.23 661.39 419.75 660.07 419.75 658.51V606.49C419.75 604.93 420.26 603.64 421.28 602.62C422.36 601.54 423.68 601 425.24 601H445.76ZM445.76 631.24C446.9 631.24 448.01 630.76 449.09 629.8C450.17 628.84 451.07 627.61 451.79 626.11C452.51 624.55 452.87 622.93 452.87 621.25C452.87 619.51 452.51 617.89 451.79 616.39C451.07 614.89 450.17 613.69 449.09 612.79C448.01 611.83 446.9 611.35 445.76 611.35H429.02L430.1 609.73V632.68L429.11 631.24H445.76ZM482.439 601C483.879 601 485.139 601.54 486.219 602.62C487.359 603.64 487.929 604.93 487.929 606.49V658.51C487.929 660.07 487.359 661.39 486.219 662.47C485.079 663.49 483.759 664 482.259 664C480.579 664 479.229 663.49 478.209 662.47C477.189 661.39 476.679 660.07 476.679 658.51V606.49C476.679 604.93 477.219 603.64 478.299 602.62C479.379 601.54 480.759 601 482.439 601ZM522.309 601C523.989 601 525.339 601.54 526.359 602.62C527.379 603.64 527.889 604.93 527.889 606.49V658.51C527.889 660.07 527.349 661.39 526.269 662.47C525.249 663.49 523.869 664 522.129 664C520.689 664 519.399 663.49 518.259 662.47C517.179 661.39 516.639 660.07 516.639 658.51V606.49C516.639 604.93 517.209 603.64 518.349 602.62C519.489 601.54 520.809 601 522.309 601ZM482.169 627.19H522.309V637.54H482.169V627.19ZM567.196 615.13L547.756 660.85C547.336 661.99 546.676 662.89 545.776 663.55C544.936 664.15 544.006 664.45 542.986 664.45C541.366 664.45 540.166 664 539.386 663.1C538.606 662.2 538.216 661.09 538.216 659.77C538.216 659.23 538.306 658.66 538.486 658.06L560.896 604.24C561.376 603.04 562.096 602.11 563.056 601.45C564.076 600.79 565.156 600.52 566.296 600.64C567.376 600.64 568.366 600.97 569.266 601.63C570.226 602.23 570.916 603.1 571.336 604.24L593.476 656.98C593.776 657.76 593.926 658.48 593.926 659.14C593.926 660.76 593.386 662.05 592.306 663.01C591.286 663.97 590.146 664.45 588.886 664.45C587.806 664.45 586.816 664.12 585.916 663.46C585.076 662.8 584.416 661.9 583.936 660.76L564.586 615.67L567.196 615.13ZM550.546 649.87L555.496 639.52H579.796L581.506 649.87H550.546ZM610.726 664C609.046 664 607.546 663.49 606.226 662.47C604.906 661.39 604.246 660.07 604.246 658.51V606.49C604.246 604.93 604.756 603.64 605.776 602.62C606.856 601.54 608.176 601 609.736 601H635.656C638.776 601 641.686 601.84 644.386 603.52C647.146 605.14 649.366 607.42 651.046 610.36C652.726 613.24 653.566 616.57 653.566 620.35C653.566 622.63 653.086 624.85 652.126 627.01C651.226 629.17 649.966 631.12 648.346 632.86C646.786 634.6 645.016 635.95 643.036 636.91L643.126 634.84C644.806 635.74 646.186 636.82 647.266 638.08C648.406 639.28 649.276 640.6 649.876 642.04C650.536 643.42 650.926 644.92 651.046 646.54C651.286 648.04 651.436 649.36 651.496 650.5C651.616 651.64 651.796 652.6 652.036 653.38C652.336 654.16 652.876 654.76 653.656 655.18C654.976 655.96 655.786 657.1 656.086 658.6C656.446 660.04 656.116 661.33 655.096 662.47C654.436 663.25 653.596 663.76 652.576 664C651.556 664.18 650.536 664.18 649.516 664C648.496 663.76 647.656 663.46 646.996 663.1C645.976 662.5 644.956 661.63 643.936 660.49C642.916 659.29 642.076 657.7 641.416 655.72C640.816 653.74 640.516 651.19 640.516 648.07C640.516 647.05 640.336 646.12 639.976 645.28C639.616 644.38 639.106 643.63 638.446 643.03C637.786 642.37 636.946 641.89 635.926 641.59C634.906 641.23 633.706 641.05 632.326 641.05H614.146L615.496 638.98V658.51C615.496 660.07 615.076 661.39 614.236 662.47C613.396 663.49 612.226 664 610.726 664ZM614.236 631.78H635.206C636.286 631.78 637.336 631.3 638.356 630.34C639.376 629.32 640.216 627.97 640.876 626.29C641.536 624.55 641.866 622.66 641.866 620.62C641.866 617.98 641.146 615.79 639.706 614.05C638.326 612.25 636.826 611.35 635.206 611.35H614.416L615.496 608.47V633.94L614.236 631.78ZM674.404 600.91C675.244 600.91 676.114 601.15 677.014 601.63C677.974 602.05 678.694 602.62 679.174 603.34L701.044 637L696.544 636.82L718.954 603.34C720.094 601.72 721.564 600.91 723.364 600.91C724.804 600.91 726.094 601.42 727.234 602.44C728.374 603.46 728.944 604.78 728.944 606.4V658.51C728.944 660.07 728.434 661.39 727.414 662.47C726.394 663.49 725.044 664 723.364 664C721.684 664 720.304 663.49 719.224 662.47C718.204 661.39 717.694 660.07 717.694 658.51V616.12L721.204 616.93L702.844 644.92C702.304 645.58 701.614 646.15 700.774 646.63C699.994 647.11 699.184 647.32 698.344 647.26C697.564 647.32 696.754 647.11 695.914 646.63C695.134 646.15 694.474 645.58 693.934 644.92L676.744 617.74L679.084 612.97V658.51C679.084 660.07 678.604 661.39 677.644 662.47C676.684 663.49 675.424 664 673.864 664C672.364 664 671.134 663.49 670.174 662.47C669.214 661.39 668.734 660.07 668.734 658.51V606.4C668.734 604.9 669.274 603.61 670.354 602.53C671.494 601.45 672.844 600.91 674.404 600.91ZM768.304 615.13L748.864 660.85C748.444 661.99 747.784 662.89 746.884 663.55C746.044 664.15 745.114 664.45 744.094 664.45C742.474 664.45 741.274 664 740.494 663.1C739.714 662.2 739.324 661.09 739.324 659.77C739.324 659.23 739.414 658.66 739.594 658.06L762.004 604.24C762.484 603.04 763.204 602.11 764.164 601.45C765.184 600.79 766.264 600.52 767.404 600.64C768.484 600.64 769.474 600.97 770.374 601.63C771.334 602.23 772.024 603.1 772.444 604.24L794.584 656.98C794.884 657.76 795.034 658.48 795.034 659.14C795.034 660.76 794.494 662.05 793.414 663.01C792.394 663.97 791.254 664.45 789.994 664.45C788.914 664.45 787.924 664.12 787.024 663.46C786.184 662.8 785.524 661.9 785.044 660.76L765.694 615.67L768.304 615.13ZM751.654 649.87L756.604 639.52H780.904L782.614 649.87H751.654ZM860.279 601C864.599 601 868.439 601.81 871.799 603.43C875.159 605.05 877.979 607.33 880.259 610.27C882.599 613.15 884.339 616.51 885.479 620.35C886.679 624.13 887.279 628.18 887.279 632.5C887.279 638.32 886.229 643.63 884.129 648.43C882.029 653.17 878.969 656.95 874.949 659.77C870.989 662.59 866.099 664 860.279 664H838.769C837.209 664 835.889 663.49 834.809 662.47C833.789 661.39 833.279 660.07 833.279 658.51V606.49C833.279 604.93 833.789 603.64 834.809 602.62C835.889 601.54 837.209 601 838.769 601H860.279ZM859.379 653.65C863.159 653.65 866.249 652.69 868.649 650.77C871.049 648.79 872.789 646.21 873.869 643.03C875.009 639.79 875.579 636.28 875.579 632.5C875.579 629.68 875.249 627.01 874.589 624.49C873.989 621.91 873.029 619.66 871.709 617.74C870.389 615.76 868.709 614.2 866.669 613.06C864.629 611.92 862.199 611.35 859.379 611.35H843.629L844.529 610.54V654.64L843.989 653.65H859.379ZM899.526 615.85C901.266 615.85 902.736 616.6 903.936 618.1L933.996 655.45C934.776 656.41 935.166 657.49 935.166 658.69C935.166 660.19 934.596 661.48 933.456 662.56C932.316 663.64 931.056 664.18 929.676 664.18C927.936 664.18 926.466 663.4 925.266 661.84L895.206 624.49C894.426 623.53 894.036 622.45 894.036 621.25C894.036 619.69 894.576 618.4 895.656 617.38C896.796 616.36 898.086 615.85 899.526 615.85ZM899.616 664.09C898.416 664.09 897.216 663.64 896.016 662.74C894.876 661.78 894.306 660.64 894.306 659.32C894.306 658.12 894.756 656.98 895.656 655.9L909.426 639.07L914.826 648.07L903.936 661.84C902.796 663.34 901.356 664.09 899.616 664.09ZM929.586 615.85C931.026 615.85 932.226 616.36 933.186 617.38C934.206 618.34 934.716 619.45 934.716 620.71C934.716 621.31 934.626 621.91 934.446 622.51C934.266 623.11 933.936 623.68 933.456 624.22L919.866 640.78L914.196 632.95L925.266 618.28C926.466 616.66 927.906 615.85 929.586 615.85Z" fill="#030164"/>
</svg>
